<svg width="18" height="18" viewBox="0 0 18 18" fill="none" xmlns="http://www.w3.org/2000/svg">
    <path d="M17.7 10.2H17.4V9.3C17.3992 8.70428 17.046 8.16548 16.5 7.9272V3.3C16.4999 3.18075 16.4293 3.0729 16.32 3.0252C16.437 2.83763 16.4994 2.6211 16.5 2.4C16.5 1.73726 15.9627 1.2 15.3 1.2C14.6373 1.2 14.1 1.73726 14.1 2.4C14.1012 2.61128 14.1588 2.81839 14.2668 3H3.7332C3.84116 2.81839 3.89876 2.61128 3.9 2.4C3.9 1.73726 3.36274 1.2 2.7 1.2C2.03726 1.2 1.5 1.73726 1.5 2.4C1.50064 2.6211 1.56296 2.83763 1.68 3.0252C1.57073 3.0729 1.50008 3.18075 1.5 3.3V7.9272C0.954 8.16548 0.600788 8.70428 0.6 9.3V10.2H0.3C0.134325 10.2 0 10.3343 0 10.5V14.7C0 14.8657 0.134325 15 0.3 15H0.6V16.5C0.6 16.6657 0.734325 16.8 0.9 16.8H2.1C2.26568 16.8 2.4 16.6657 2.4 16.5V15H15.6V16.5C15.6 16.6657 15.7343 16.8 15.9 16.8H17.1C17.2657 16.8 17.4 16.6657 17.4 16.5V15H17.7C17.8657 15 18 14.8657 18 14.7V10.5C18 10.3343 17.8657 10.2 17.7 10.2ZM15.3 1.8C15.6314 1.8 15.9 2.06861 15.9 2.4C15.9 2.73139 15.6314 3 15.3 3C14.9686 3 14.7 2.73139 14.7 2.4C14.7 2.06861 14.9686 1.8 15.3 1.8ZM2.7 1.8C3.03139 1.8 3.3 2.06861 3.3 2.4C3.3 2.73139 3.03139 3 2.7 3C2.36861 3 2.1 2.73139 2.1 2.4C2.1 2.06861 2.36861 1.8 2.7 1.8ZM2.1 3.6H15.9V7.8H14.6922C14.8907 7.54189 14.9989 7.22565 15 6.9V6.3C14.999 5.472 14.328 4.80098 13.5 4.8H11.1C10.272 4.80098 9.60098 5.472 9.6 6.3V6.9C9.60109 7.22565 9.70928 7.54189 9.9078 7.8H8.0922C8.29073 7.54189 8.39891 7.22565 8.4 6.9V6.3C8.39902 5.472 7.728 4.80098 6.9 4.8H4.5C3.672 4.80098 3.00098 5.472 3 6.3V6.9C3.00109 7.22565 3.10928 7.54189 3.3078 7.8H2.1V3.6ZM14.4 6.3V6.9C14.4 7.39706 13.9971 7.8 13.5 7.8H11.1C10.6029 7.8 10.2 7.39706 10.2 6.9V6.3C10.2 5.80294 10.6029 5.4 11.1 5.4H13.5C13.9971 5.4 14.4 5.80294 14.4 6.3ZM7.8 6.3V6.9C7.8 7.39706 7.39706 7.8 6.9 7.8H4.5C4.00294 7.8 3.6 7.39706 3.6 6.9V6.3C3.6 5.80294 4.00294 5.4 4.5 5.4H6.9C7.39706 5.4 7.8 5.80294 7.8 6.3ZM1.2 9.3C1.2 8.80294 1.60294 8.4 2.1 8.4H15.9C16.3971 8.4 16.8 8.80294 16.8 9.3V10.2H1.2V9.3ZM1.8 16.2H1.2V15H1.8V16.2ZM16.8 16.2H16.2V15H16.8V16.2ZM17.4 14.4H0.6V10.8H17.4V14.4Z" fill="#626262"/>
    <path d="M2.7 13.2H1.5C1.33432 13.2 1.2 13.3343 1.2 13.5C1.2 13.6657 1.33432 13.8 1.5 13.8H2.7C2.86567 13.8 3 13.6657 3 13.5C3 13.3343 2.86567 13.2 2.7 13.2Z" fill="#626262"/>
    <path d="M16.5 13.2H3.9C3.73432 13.2 3.6 13.3343 3.6 13.5C3.6 13.6657 3.73432 13.8 3.9 13.8H16.5C16.6657 13.8 16.8 13.6657 16.8 13.5C16.8 13.3343 16.6657 13.2 16.5 13.2Z" fill="#626262"/>
</svg>
