<svg width="23" height="23" viewBox="0 0 23 23" fill="none" xmlns="http://www.w3.org/2000/svg">
    <g opacity="0.7">
        <path d="M11.5 21.3C11.3 21.3 11 21.2 11 21.1C10.4 20.5 9.7 19.9 9.1 19.4C8.8 19.2 8.6 19 8.4 18.8L7.9 18.4C5.8 16.6 4 15 2.7 13.5C1.2 11.7 0.5 10 0.5 8.2C0.5 6.4 1.1 4.7 2.2 3.7C3.3 2.5 4.8 1.8 6.4 1.8C7.7 1.8 8.8 2.2 9.7 2.9C10.3 3.3 10.7 3.7 11.1 4.3L11.5 4.9L11.9 4.4C12.4 3.8 12.9 3.3 13.3 3C14.3 2.3 15.4 1.9 16.6 1.9C18.3 1.9 19.7 2.5 20.8 3.7C21.9 4.8 22.5 6.4 22.5 8.3C22.5 10.1 21.8 11.8 20.3 13.6C19 15.2 17.2 16.7 15.1 18.5L14.6 18.9C13.8 19.6 12.9 20.4 12 21.2C11.9 21.2 11.7 21.3 11.5 21.3Z" fill="black"/>
        <path d="M16.6 2.3C18.1 2.3 19.5 2.9 20.5 4C21.5 5 22 6.5 22 8.2C22 9.9 21.3 11.5 19.9 13.2C18.7 14.7 16.9 16.3 14.8 18.1L14.3 18.5C13.5 19.2 12.6 20 11.8 20.8C11.7 20.9 11.6 20.9 11.5 20.9C11.4 20.9 11.3 20.9 11.3 20.9C10.6 20.3 10 19.7 9.4 19.2C9.2 19 8.9 18.8 8.7 18.6L8.2 18C6.1 16.2 4.3 14.7 3.1 13.1C1.7 11.5 1 9.9 1 8.2C1 6.5 1.5 5 2.5 4C3.5 2.9 4.9 2.3 6.4 2.3C7.6 2.3 8.6 2.6 9.4 3.3C9.9 3.6 10.3 4 10.6 4.5L11.3 5.6L12.2 4.6C12.7 4.1 13.1 3.6 13.5 3.3C14.5 2.6 15.5 2.3 16.6 2.3ZM16.6 1.3C15.3 1.3 14.1 1.7 13 2.5C12.5 2.9 12 3.4 11.5 4C11.1 3.4 10.6 2.9 10 2.5C9 1.7 7.8 1.3 6.4 1.3C4.6 1.3 3 2 1.8 3.3C0.6 4.5 0 6.3 0 8.2C0 10.1 0.7 11.9 2.3 13.8C3.7 15.5 5.7 17.2 8 19.2C8.8 19.9 9.7 20.6 10.6 21.5C10.8 21.7 11.2 21.8 11.5 21.8C11.8 21.8 12.1 21.7 12.4 21.5C13.3 20.7 14.2 19.9 15 19.2C17.3 17.2 19.3 15.5 20.7 13.8C22.3 11.9 23 10.1 23 8.2C23 6.3 22.4 4.5 21.2 3.3C20 2 18.4 1.3 16.6 1.3Z" fill="white"/>
    </g>
</svg>