<svg width="18" height="18" viewBox="0 0 18 18" fill="none" xmlns="http://www.w3.org/2000/svg">
    <path d="M11.6093 3.90441H10.7304V5.42785H11.6093V3.90441Z" fill="#626262" fill-opacity="0.9"/>
    <path d="M13.3672 3.90441H12.4883V5.42785H13.3672V3.90441Z" fill="#626262" fill-opacity="0.9"/>
    <path d="M9.85136 3.90441H8.97245V5.42785H9.85136V3.90441Z" fill="#626262" fill-opacity="0.9"/>
    <path d="M11.6093 6.30679H10.7304V7.83022H11.6093V6.30679Z" fill="#626262" fill-opacity="0.9"/>
    <path d="M13.3672 6.30679H12.4883V7.83022H13.3672V6.30679Z" fill="#626262" fill-opacity="0.9"/>
    <path d="M9.85136 6.30679H8.97245V7.83022H9.85136V6.30679Z" fill="#626262" fill-opacity="0.9"/>
    <path d="M6.42362 6.93184H5.54472V8.18313H6.42362V6.93184Z" fill="#626262" fill-opacity="0.9"/>
    <path d="M6.42362 9.0621H5.54472V10.3134H6.42362V9.0621Z" fill="#626262" fill-opacity="0.9"/>
    <path d="M6.42362 11.1924H5.54472V12.4437H6.42362V11.1924Z" fill="#626262" fill-opacity="0.9"/>
    <path d="M6.42362 13.3226H5.54472V14.5739H6.42362V13.3226Z" fill="#626262" fill-opacity="0.9"/>
    <path d="M11.6093 8.70919H10.7304V10.2326H11.6093V8.70919Z" fill="#626262" fill-opacity="0.9"/>
    <path d="M13.3672 8.70919H12.4883V10.2326H13.3672V8.70919Z" fill="#626262" fill-opacity="0.9"/>
    <path d="M9.85136 8.70919H8.97245V10.2326H9.85136V8.70919Z" fill="#626262" fill-opacity="0.9"/>
    <path d="M11.6093 11.1116H10.7304V12.635H11.6093V11.1116Z" fill="#626262" fill-opacity="0.9"/>
    <path d="M13.3672 11.1116H12.4883V12.635H13.3672V11.1116Z" fill="#626262" fill-opacity="0.9"/>
    <path d="M9.85136 11.1116H8.97245V12.635H9.85136V11.1116Z" fill="#626262" fill-opacity="0.9"/>
    <path d="M13.3672 13.514H12.4883V15.0374H13.3672V13.514Z" fill="#626262" fill-opacity="0.9"/>
    <path d="M9.85136 13.514H8.97245V15.0374H9.85136V13.514Z" fill="#626262" fill-opacity="0.9"/>
    <path d="M15.1251 16.1067V2H7.21452V5.15091H3.87488V16.1067H2V16.9856H17V16.1067H15.1251V16.1067ZM14.2462 2.87891V16.1067H11.6093V13.514H10.7304V16.1067H8.09343V2.87891H14.2462ZM4.75379 6.02981H7.21452V16.1067H4.75379V6.02981Z" fill="#626262" fill-opacity="0.9"/>
</svg>