<svg width="18" height="18" viewBox="0 0 18 18" fill="none" xmlns="http://www.w3.org/2000/svg">
    <g clip-path="url(#clip0_656_1893)">
        <path d="M1.13082 10.99L2.04793 15.2017C2.23779 16.0722 3.02211 16.7126 3.91307 16.7126H3.96942V17.5449C3.96942 17.6878 4.08906 17.8223 4.23211 17.8223H6.50098C6.58363 17.822 6.66122 17.7824 6.70991 17.7155L7.44352 16.7126H10.557L11.2904 17.7155C11.3391 17.7824 11.4167 17.822 11.4993 17.8223H13.7682C13.9113 17.8223 14.0309 17.6878 14.0309 17.5449V16.7126H14.0873C14.9782 16.7126 15.7625 16.0722 15.9525 15.2017L16.8697 10.9943C17.5517 10.9005 18.0444 10.2944 17.9969 9.6076C17.9493 8.92082 17.3777 8.38835 16.6892 8.38965H14.012C13.9585 8.05124 13.6685 7.80112 13.3261 7.7978H9.62453C9.28207 7.80112 8.99222 8.05124 8.93875 8.38965H2.93368V2.20497C2.93368 1.36734 3.61266 0.688353 4.4503 0.688353C5.28794 0.688353 5.96692 1.36734 5.96692 2.20497V3.09998H5.60467C5.0514 3.10084 4.60231 3.54748 4.59826 4.1006V4.50562H4.44784C4.37979 4.5049 4.31433 4.53163 4.26607 4.57975C4.21781 4.62787 4.19093 4.69332 4.19137 4.76138V5.61318C4.19006 5.75608 4.30494 5.87298 4.44784 5.87428H8.02872C8.17408 5.87399 8.293 5.7584 8.29734 5.61318V4.76138C8.29257 4.61717 8.17307 4.50331 8.02872 4.50562H7.85345V4.1006C7.85562 3.83661 7.75245 3.58273 7.56692 3.39504C7.38153 3.20719 7.12895 3.10099 6.86496 3.09998H6.48479V2.20497C6.48479 1.08138 5.57389 0.170483 4.4503 0.170483C3.32671 0.170483 2.41581 1.08138 2.41581 2.20497V8.38965H1.31114C0.622915 8.38691 0.0507142 8.91879 0.00317534 9.60529C-0.044508 10.2919 0.448798 10.8977 1.13082 10.99ZM7.77947 5.35641H4.70924V5.02349H7.77947V5.35641ZM7.33558 4.1006V4.50562H5.11613V4.1006C5.11989 3.83329 5.33736 3.61842 5.60467 3.61785H6.86496C6.99154 3.61871 7.11262 3.6703 7.20091 3.76104C7.28934 3.85164 7.33789 3.97403 7.33558 4.1006ZM6.36963 17.3044H4.48729V16.7126H6.80167L6.36963 17.3044ZM13.513 17.3044H11.6308L11.1987 16.7126H13.513V17.3044ZM15.4465 15.098C15.3045 15.7358 14.7407 16.1907 14.0873 16.1947H3.91307C3.25966 16.1907 2.69584 15.7358 2.5538 15.098L1.66357 11.016H8.92618V13.5848C8.92618 13.7277 9.04452 13.8273 9.18772 13.8273H13.7629C13.9059 13.8273 14.0309 13.7277 14.0309 13.5848V11.016H16.3368L15.4465 15.098ZM9.44405 12.8285H13.513V13.3094H9.44405V12.8285ZM17.4822 9.70282C17.4819 10.1409 17.1274 10.4964 16.6892 10.4981H14.0309V8.90752H16.6892C17.1274 8.90911 17.4819 9.26457 17.4822 9.70282ZM9.62453 8.31567H13.3261C13.426 8.31495 13.5086 8.39341 13.513 8.49311V12.3107H9.44405V8.49311C9.4455 8.39457 9.52598 8.31538 9.62453 8.31567ZM1.31114 8.90752H8.92618V10.4981H1.31114C0.87188 10.4981 0.515844 10.1419 0.515844 9.70282C0.515844 9.26356 0.87188 8.90752 1.31114 8.90752Z" fill="#626262"/>
    </g>
    <defs>
        <clipPath id="clip0_656_1893">
            <rect width="18" height="18" fill="white"/>
        </clipPath>
    </defs>
</svg>
